<svg xmlns="http://www.w3.org/2000/svg" width="1200" height="700" viewBox="0 0 1200 700" fill="none">
  <rect width="1200" height="700" fill="#141B2D"/>
  <rect x="40" y="40" width="1120" height="620" rx="24" fill="#1A2237" stroke="#273247"/>
  <circle cx="98" cy="98" r="10" fill="#7C3AED"/>
  <circle cx="130" cy="98" r="10" fill="#A855F7"/>
  <circle cx="162" cy="98" r="10" fill="#C084FC"/>
  <text x="80" y="180" fill="#F8FAFC" font-size="58" font-family="monospace" font-weight="700">TaskFlow</text>
  <text x="80" y="230" fill="#94A3B8" font-size="24" font-family="monospace">Task management dashboard built with Next.js</text>
  <rect x="80" y="290" width="480" height="64" rx="12" fill="#7C3AED" fill-opacity="0.18" stroke="#7C3AED"/>
  <text x="105" y="332" fill="#C4B5FD" font-size="22" font-family="monospace">SSR + CSR performance optimized</text>
  <rect x="80" y="380" width="420" height="64" rx="12" fill="#7C3AED" fill-opacity="0.12" stroke="#7C3AED"/>
  <text x="105" y="422" fill="#C4B5FD" font-size="22" font-family="monospace">Role based task workflows</text>
  <rect x="650" y="270" width="430" height="300" rx="20" fill="#0F1526" stroke="#273247"/>
  <rect x="680" y="310" width="370" height="32" rx="8" fill="#1E293B"/>
  <rect x="680" y="360" width="260" height="22" rx="8" fill="#334155"/>
  <rect x="680" y="398" width="320" height="22" rx="8" fill="#334155"/>
  <rect x="680" y="436" width="280" height="22" rx="8" fill="#334155"/>
  <rect x="680" y="486" width="160" height="38" rx="10" fill="#7C3AED"/>
</svg>
